<svg width="26" height="27" viewBox="0 0 26 27" fill="none" xmlns="http://www.w3.org/2000/svg">
<path d="M12.8415 17.3205C10.6755 17.3205 8.92334 15.633 8.92334 13.5135C8.92334 11.394 10.6755 9.69299 12.8415 9.69299C15.0076 9.69299 16.7183 11.394 16.7183 13.5135C16.7183 15.633 15.0076 17.3205 12.8415 17.3205Z" fill="black"/>
<path opacity="0.4" d="M25.2857 16.6995C25.0235 16.2945 24.651 15.8895 24.1682 15.633C23.7819 15.444 23.5335 15.1335 23.3128 14.769C22.6092 13.608 23.0231 12.0825 24.1958 11.394C25.5754 10.6245 26.0169 8.91 25.2167 7.5735L24.2923 5.9805C23.5059 4.644 21.7814 4.1715 20.4155 4.9545C19.2015 5.6025 17.6425 5.1705 16.9388 4.023C16.7181 3.645 16.5939 3.24 16.6215 2.835C16.6629 2.3085 16.4974 1.809 16.249 1.404C15.7386 0.567 14.8142 0 13.7933 0H11.848C10.8408 0.027 9.91646 0.567 9.40599 1.404C9.14386 1.809 8.9921 2.3085 9.01969 2.835C9.04729 3.24 8.92312 3.645 8.70237 4.023C7.99876 5.1705 6.43976 5.6025 5.23947 4.9545C3.85983 4.1715 2.14907 4.644 1.34888 5.9805L0.42452 7.5735C-0.361877 8.91 0.079609 10.6245 1.44546 11.394C2.61815 12.0825 3.03204 13.608 2.34222 14.769C2.10768 15.1335 1.85935 15.444 1.47305 15.633C1.00397 15.8895 0.590077 16.2945 0.369334 16.6995C-0.141134 17.5365 -0.113541 18.5895 0.396927 19.467L1.34888 21.087C1.85935 21.951 2.8113 22.491 3.80464 22.491C4.27372 22.491 4.82558 22.356 5.26706 22.086C5.61198 21.8565 6.02587 21.7755 6.48115 21.7755C7.847 21.7755 8.9921 22.896 9.01969 24.2325C9.01969 25.785 10.289 27 11.8893 27H13.7657C15.3523 27 16.6215 25.785 16.6215 24.2325C16.6629 22.896 17.808 21.7755 19.1739 21.7755C19.6153 21.7755 20.0292 21.8565 20.3879 22.086C20.8294 22.356 21.3675 22.491 21.8504 22.491C22.8299 22.491 23.7819 21.951 24.2923 21.087L25.2581 19.467C25.7548 18.5625 25.7961 17.5365 25.2857 16.6995Z" fill="black"/>
</svg>
